<svg xmlns="http://www.w3.org/2000/svg" viewBox="0 0 800 500">
  <defs>
    <linearGradient id="bg" x1="0%" y1="0%" x2="100%" y2="100%">
      <stop offset="0%" style="stop-color:#714B67;stop-opacity:1" />
      <stop offset="100%" style="stop-color:#5B3A53;stop-opacity:1" />
    </linearGradient>
    <linearGradient id="accent" x1="0%" y1="0%" x2="100%" y2="100%">
      <stop offset="0%" style="stop-color:#00A09D;stop-opacity:1" />
      <stop offset="100%" style="stop-color:#017E84;stop-opacity:1" />
    </linearGradient>
  </defs>
  <rect fill="url(#bg)" width="800" height="500" rx="16"/>
  <!-- Dashboard mockup -->
  <rect x="40" y="40" width="720" height="420" rx="12" fill="#1a1a2e" opacity="0.9"/>
  <!-- Sidebar -->
  <rect x="40" y="40" width="180" height="420" rx="12" fill="#2d2d3d"/>
  <circle cx="130" cy="80" r="20" fill="#714B67"/>
  <rect x="60" y="120" width="140" height="8" rx="4" fill="#444"/>
  <rect x="60" y="140" width="100" height="6" rx="3" fill="#555"/>
  <rect x="60" y="170" width="140" height="32" rx="6" fill="#714B67" opacity="0.3"/>
  <rect x="70" y="178" width="80" height="6" rx="3" fill="#714B67"/>
  <rect x="60" y="210" width="140" height="32" rx="6" fill="transparent"/>
  <rect x="70" y="218" width="90" height="6" rx="3" fill="#666"/>
  <rect x="60" y="250" width="140" height="32" rx="6" fill="transparent"/>
  <rect x="70" y="258" width="70" height="6" rx="3" fill="#666"/>
  <rect x="60" y="290" width="140" height="32" rx="6" fill="transparent"/>
  <rect x="70" y="298" width="100" height="6" rx="3" fill="#666"/>
  <!-- Stats cards -->
  <rect x="240" y="60" width="160" height="80" rx="8" fill="#2d2d3d"/>
  <rect x="260" y="80" width="40" height="40" rx="8" fill="#714B67" opacity="0.3"/>
  <rect x="310" y="85" width="70" height="10" rx="4" fill="#fff" opacity="0.8"/>
  <rect x="310" y="105" width="50" height="6" rx="3" fill="#888"/>
  <rect x="420" y="60" width="160" height="80" rx="8" fill="#2d2d3d"/>
  <rect x="440" y="80" width="40" height="40" rx="8" fill="#00A09D" opacity="0.3"/>
  <rect x="490" y="85" width="60" height="10" rx="4" fill="#fff" opacity="0.8"/>
  <rect x="490" y="105" width="40" height="6" rx="3" fill="#888"/>
  <rect x="600" y="60" width="140" height="80" rx="8" fill="#2d2d3d"/>
  <rect x="620" y="80" width="40" height="40" rx="8" fill="#F0AD4E" opacity="0.3"/>
  <rect x="670" y="85" width="50" height="10" rx="4" fill="#fff" opacity="0.8"/>
  <rect x="670" y="105" width="35" height="6" rx="3" fill="#888"/>
  <!-- Chart area -->
  <rect x="240" y="160" width="500" height="280" rx="8" fill="#2d2d3d"/>
  <rect x="260" y="180" width="100" height="8" rx="4" fill="#fff" opacity="0.6"/>
  <!-- Chart bars -->
  <rect x="280" y="380" width="30" height="40" rx="4" fill="#714B67"/>
  <rect x="320" y="340" width="30" height="80" rx="4" fill="#714B67"/>
  <rect x="360" y="300" width="30" height="120" rx="4" fill="#714B67"/>
  <rect x="400" y="260" width="30" height="160" rx="4" fill="#00A09D"/>
  <rect x="440" y="320" width="30" height="100" rx="4" fill="#714B67"/>
  <rect x="480" y="280" width="30" height="140" rx="4" fill="#714B67"/>
  <rect x="520" y="240" width="30" height="180" rx="4" fill="#00A09D"/>
  <rect x="560" y="300" width="30" height="120" rx="4" fill="#714B67"/>
  <rect x="600" y="350" width="30" height="70" rx="4" fill="#714B67"/>
  <rect x="640" y="330" width="30" height="90" rx="4" fill="#714B67"/>
  <rect x="680" y="290" width="30" height="130" rx="4" fill="#00A09D"/>
  <!-- Floating elements -->
  <circle cx="750" cy="50" r="30" fill="#00A09D" opacity="0.2"/>
  <circle cx="50" cy="450" r="20" fill="#F0AD4E" opacity="0.2"/>
</svg>
