<svg xmlns="http://www.w3.org/2000/svg" viewBox="0 0 400 300">
  <defs>
    <linearGradient id="bg" x1="0%" y1="0%" x2="100%" y2="100%">
      <stop offset="0%" style="stop-color:#F0AD4E;stop-opacity:0.1" />
      <stop offset="100%" style="stop-color:#E65100;stop-opacity:0.05" />
    </linearGradient>
  </defs>
  <rect fill="url(#bg)" width="400" height="300" rx="16"/>
  <!-- Invoice/Document -->
  <rect x="100" y="30" width="200" height="240" rx="8" fill="white" stroke="#EBEBEB" stroke-width="1"/>
  <!-- Header -->
  <rect x="120" y="50" width="160" height="40" rx="4" fill="#714B67"/>
  <rect x="140" y="65" width="80" height="8" rx="4" fill="white" opacity="0.8"/>
  <rect x="140" y="80" width="60" height="6" rx="3" fill="white" opacity="0.5"/>
  <!-- Lines -->
  <rect x="120" y="110" width="160" height="20" rx="4" fill="#F5F5F5"/>
  <rect x="130" y="116" width="80" height="6" rx="3" fill="#999"/>
  <rect x="250" y="116" width="20" height="6" rx="3" fill="#714B67"/>
  <rect x="120" y="140" width="160" height="20" rx="4" fill="white"/>
  <rect x="130" y="146" width="90" height="6" rx="3" fill="#999"/>
  <rect x="250" y="146" width="20" height="6" rx="3" fill="#714B67"/>
  <rect x="120" y="170" width="160" height="20" rx="4" fill="#F5F5F5"/>
  <rect x="130" y="176" width="70" height="6" rx="3" fill="#999"/>
  <rect x="250" y="176" width="20" height="6" rx="3" fill="#714B67"/>
  <!-- Total -->
  <rect x="120" y="210" width="160" height="30" rx="4" fill="#714B67"/>
  <rect x="140" y="220" width="60" height="8" rx="4" fill="white" opacity="0.8"/>
  <rect x="250" y="220" width="20" height="8" rx="4" fill="white" opacity="0.8"/>
  <!-- Stamp -->
  <circle cx="310" cy="240" r="20" fill="#00A09D" opacity="0.8"/>
  <text x="310" y="244" text-anchor="middle" fill="white" font-size="8" font-weight="bold">PAID</text>
</svg>
